<svg width="363.938" height="161.725" viewBox="0 0 363.938 161.725" xmlns="http://www.w3.org/2000/svg"><defs><linearGradient id="logoGradient" x1="0%" y1="0%" x2="100%" y2="0%"><stop offset="0%" stop-color="#ad2a29"/><stop offset="25%" stop-color="#ed614b"/><stop offset="50%" stop-color="#de82a6"/><stop offset="75%" stop-color="#c099ee"/><stop offset="100%" stop-color="#b0d2f1"/></linearGradient></defs><g id="svgGroup" stroke-linecap="round" fill-rule="evenodd" font-size="9pt" stroke="none" stroke-width="0" fill="url(#logoGradient)" style="stroke:none;stroke-width:0;fill:url(#logoGradient)"><path d="M 3.4 29.042 L 25.4 29.242 C 25.6 43.242 26.6 105.642 25.6 130.842 C 25.6 132.442 26 133.442 28.2 133.642 C 30.8 133.842 43.2 133.642 46.8 133.642 C 48.6 133.642 49.4 132.642 49.4 131.042 L 48.6 18.642 C 48.6 17.442 49.2 16.842 50 16.842 C 54.4 16.442 78.4 16.242 89.2 16.442 C 90.8 16.442 91.4 15.642 91.4 14.042 L 91.4 2.042 C 91.4 0.842 90.8 0.042 89.4 0.042 C 63.6 -0.158 18.8 0.442 2.8 0.042 C 0.8 0.042 0 0.642 0 2.842 C 0.2 7.442 -0.2 22.642 0.2 26.442 C 0.4 28.442 1.4 29.042 3.4 29.042 Z" id="0" vector-effect="non-scaling-stroke"/><path d="M 78 101.042 C 78 104.642 77.8 153.042 77.8 159.642 C 77.8 161.042 77.2 161.642 75.8 161.642 C 72.8 161.842 65.8 161.642 62.4 161.442 C 60.6 161.242 60.4 160.442 60.4 158.642 C 60.4 131.442 61.2 63.042 60.8 30.042 C 60.8 27.842 61.4 27.442 62.8 27.242 C 66.8 26.842 84.6 26.842 89 27.042 C 90 27.042 91 27.642 91 29.042 C 91.2 35.642 90.6 64.842 91.6 71.642 C 99.2 71.842 109.8 71.842 115.8 71.242 C 116 66.042 115.8 33.642 115.6 29.442 C 115.4 27.842 116.6 27.042 118 26.842 C 120.6 26.642 124.4 26.642 130.2 26.642 C 132.4 26.642 133 27.442 133 29.642 C 133 55.842 132.8 112.842 133.2 140.042 C 133.2 141.842 132.8 142.442 130.6 142.442 C 122.6 142.442 111.4 142.642 105.6 142.242 C 104.4 142.042 103.6 141.042 103.6 139.842 C 103.6 132.242 103.8 109.842 103.8 102.642 C 103.8 101.242 103.2 101.042 101.8 101.042 C 94.8 101.242 84.8 101.242 78 101.042 Z" id="1" vector-effect="non-scaling-stroke"/><path d="M 147 142.642 C 145.6 142.642 143.8 141.842 143.8 139.242 C 143.6 110.242 144.8 48.642 144 31.842 C 143.8 28.842 144.4 27.642 146.6 27.442 C 149.8 27.042 166.4 27.242 171 27.642 C 172.6 27.842 173.4 28.442 173.4 30.642 C 173.4 44.242 173 110.442 173 139.642 C 173 142.042 171.8 142.642 170.6 142.642 L 147 142.642 Z" id="2" vector-effect="non-scaling-stroke"/><path d="M 260 143.842 C 256.8 144.842 246 146.042 243.2 146.042 C 241.4 146.042 239.8 145.442 239.2 144.042 C 234.4 132.442 218.8 94.842 209.4 75.242 C 208.4 73.242 206.8 73.442 206.8 75.442 C 206.8 97.042 207.8 124.442 208.4 133.042 C 208.4 134.442 207.6 135.242 206.2 135.442 C 202.6 135.842 190.2 136.042 187 135.642 C 185.4 135.442 184.6 134.442 184.6 132.842 C 184.6 114.042 183.8 59.642 184 31.042 C 184 29.842 184.6 28.642 186.2 28.442 C 188.8 28.042 200.6 27.842 204.2 27.842 C 206 27.842 207.2 28.642 208 30.442 C 214 43.842 220.6 60.242 230.8 81.642 C 231.2 82.442 232.8 82.642 232.8 81.242 C 232.8 55.442 231.6 23.642 231.6 7.442 C 231.6 5.442 232.2 4.442 234.2 4.242 C 238.4 4.042 255.4 3.842 259.6 4.442 C 261.2 4.642 262.2 5.242 262.2 7.242 C 261.8 36.442 262.2 108.442 262.4 141.242 C 262.4 142.442 261.4 143.442 260 143.842 Z" id="3" vector-effect="non-scaling-stroke"/><path d="M 274.2 135.442 C 272.8 135.442 272 134.042 272 133.042 C 272.4 113.042 272 47.642 272 28.842 C 272 27.242 273 26.442 274.4 26.242 C 277.2 26.042 295.6 25.842 299 26.242 C 300.6 26.442 301.4 27.442 301.4 28.842 C 301.4 34.842 301 51.442 300.8 65.042 C 313.2 49.242 345 8.842 349.4 2.242 C 350 1.242 351.6 1.042 352.4 1.442 C 354 2.242 361 7.842 363 9.242 C 364 9.842 364.2 11.042 363.6 12.042 C 362.8 13.442 325 62.842 315.6 75.242 C 327.2 92.242 356.6 134.642 357.2 135.842 C 358 137.442 358.2 138.442 357 139.642 C 352.8 143.242 341 151.842 336.2 154.042 C 334.8 154.442 333.8 153.642 333.4 152.842 C 330.2 147.842 303.8 108.842 291.8 92.642 C 290.4 91.042 289.4 91.442 289.4 93.042 C 289.4 110.642 289.6 128.042 289.4 133.442 C 289.4 134.642 288.6 135.442 287.4 135.442 L 274.2 135.442 Z" id="4" vector-effect="non-scaling-stroke"/></g></svg>